<svg width="16" height="14" viewBox="0 0 16 14" fill="none" xmlns="http://www.w3.org/2000/svg">
<path d="M0.571 2.571H15.429C15.5804 2.571 15.7257 2.51084 15.8328 2.40376C15.9398 2.29668 16 2.15144 16 2V0.570999C16 0.419561 15.9398 0.274323 15.8328 0.16724C15.7257 0.0601569 15.5804 0 15.429 0H0.571C0.419561 0 0.274325 0.0601569 0.167242 0.16724C0.0601588 0.274323 0 0.419561 0 0.570999L0 2C0 2.15144 0.0601588 2.29668 0.167242 2.40376C0.274325 2.51084 0.419561 2.571 0.571 2.571ZM0.571 8.285H15.429C15.5804 8.285 15.7257 8.22484 15.8328 8.11776C15.9398 8.01068 16 7.86544 16 7.714V6.286C16 6.13456 15.9398 5.98932 15.8328 5.88224C15.7257 5.77516 15.5804 5.715 15.429 5.715H0.571C0.419561 5.715 0.274325 5.77516 0.167242 5.88224C0.0601588 5.98932 0 6.13456 0 6.286L0 7.715C0 7.86644 0.0601588 8.01168 0.167242 8.11876C0.274325 8.22584 0.419561 8.286 0.571 8.286V8.285ZM0.571 14H15.429C15.5804 14 15.7257 13.9398 15.8328 13.8328C15.9398 13.7257 16 13.5804 16 13.429V12C16 11.8486 15.9398 11.7033 15.8328 11.5962C15.7257 11.4892 15.5804 11.429 15.429 11.429H0.571C0.419561 11.429 0.274325 11.4892 0.167242 11.5962C0.0601588 11.7033 0 11.8486 0 12L0 13.429C0 13.5804 0.0601588 13.7257 0.167242 13.8328C0.274325 13.9398 0.419561 14 0.571 14Z" fill="#606060"/>
</svg>
