<svg width="16" height="13" viewBox="0 0 16 13" fill="none" xmlns="http://www.w3.org/2000/svg">
<path d="M7.999 10.003C7.09319 10.0012 6.22157 9.65685 5.55919 9.03899C4.89681 8.42113 4.49272 7.57553 4.42808 6.67203L1.80513 4.64507C1.45347 5.07657 1.14594 5.54222 0.88715 6.03504C0.82994 6.1482 0.800133 6.27323 0.800133 6.40003C0.800133 6.52684 0.82994 6.65186 0.88715 6.76503C1.54771 8.08891 2.5617 9.2042 3.81689 9.98746C5.07208 10.7707 6.51952 11.1914 7.999 11.2029C8.65642 11.1987 9.31064 11.111 9.94596 10.9419L8.64599 9.94196C8.43261 9.98176 8.21606 10.0022 7.999 10.003ZM15.8438 11.4549L13.0819 9.31597C13.9214 8.60837 14.6117 7.7409 15.1129 6.76403C15.1701 6.65086 15.1999 6.52584 15.1999 6.39903C15.1999 6.27223 15.1701 6.1472 15.1129 6.03404C14.4512 4.71117 13.4365 3.59711 12.1809 2.81511C10.9254 2.03311 9.47809 1.61365 7.999 1.60314C6.71193 1.60438 5.44569 1.92825 4.31608 2.54512L1.13715 0.0841673C1.05345 0.0191194 0.947353 -0.0100455 0.842166 0.00307941C0.736979 0.0162043 0.641304 0.0705455 0.576157 0.154166L0.0841673 0.786153C0.0191194 0.86985 -0.0100455 0.975945 0.00307941 1.08113C0.0162043 1.18632 0.0705456 1.28199 0.154166 1.34714L14.8639 12.7149C14.9476 12.7799 15.0536 12.8091 15.1588 12.796C15.264 12.7829 15.3597 12.7285 15.4248 12.6449L15.9158 12.0129C15.9809 11.9292 16.01 11.8231 15.9969 11.7179C15.9838 11.6128 15.9295 11.5171 15.8458 11.4519L15.8438 11.4549ZM11.2529 7.903L10.271 7.14402C10.4126 6.73357 10.4388 6.29209 10.3465 5.86779C10.2543 5.44349 10.0472 5.05271 9.74791 4.73813C9.44861 4.42356 9.06861 4.1973 8.64942 4.08407C8.23024 3.97084 7.788 3.97499 7.37101 4.09608C7.52044 4.30141 7.60033 4.54913 7.59901 4.80307C7.59511 4.88757 7.58203 4.97139 7.56001 5.05306L5.72105 3.62709C6.36061 3.09444 7.16668 2.80287 7.999 2.80311C8.95376 2.80311 9.86941 3.18239 10.5445 3.8575C11.2196 4.53262 11.5989 5.44828 11.5989 6.40303C11.5955 6.92252 11.477 7.4348 11.2519 7.903H11.2529Z" fill="#606060"/>
</svg>
