<svg width="16" height="16" viewBox="0 0 16 16" fill="none" xmlns="http://www.w3.org/2000/svg">
<path d="M16 8C16 9.58225 15.5308 11.129 14.6518 12.4446C13.7727 13.7602 12.5233 14.7855 11.0615 15.391C9.59966 15.9965 7.99113 16.155 6.43928 15.8463C4.88743 15.5376 3.46197 14.7757 2.34315 13.6569C1.22433 12.538 0.462403 11.1126 0.153721 9.56072C-0.15496 8.00887 0.00346625 6.40034 0.608967 4.93853C1.21447 3.47672 2.23985 2.22729 3.55544 1.34824C4.87103 0.469191 6.41775 0 8 0C10.1217 0 12.1566 0.842854 13.6569 2.34315C15.1571 3.84344 16 5.87827 16 8ZM7.075 12.236L13.01 6.3C13.058 6.25208 13.096 6.19518 13.122 6.13255C13.1479 6.06992 13.1613 6.00279 13.1613 5.935C13.1613 5.86721 13.1479 5.80008 13.122 5.73745C13.096 5.67482 13.058 5.61792 13.01 5.57L12.28 4.84C12.2321 4.79205 12.1752 4.754 12.1126 4.72805C12.0499 4.70209 11.9828 4.68873 11.915 4.68873C11.8472 4.68873 11.7801 4.70209 11.7175 4.72805C11.6548 4.754 11.5979 4.79205 11.55 4.84L6.71 9.681L4.45 7.421C4.40208 7.37304 4.34518 7.335 4.28256 7.30905C4.21993 7.28309 4.1528 7.26973 4.085 7.26973C4.01721 7.26973 3.95008 7.28309 3.88745 7.30905C3.82482 7.335 3.76792 7.37304 3.72 7.421L2.99 8.151C2.94205 8.19892 2.90401 8.25582 2.87805 8.31845C2.8521 8.38108 2.83874 8.44821 2.83874 8.516C2.83874 8.58379 2.8521 8.65092 2.87805 8.71355C2.90401 8.77618 2.94205 8.83308 2.99 8.881L6.345 12.236C6.39292 12.284 6.44982 12.322 6.51245 12.348C6.57508 12.3739 6.64221 12.3873 6.71 12.3873C6.7778 12.3873 6.84493 12.3739 6.90756 12.348C6.97018 12.322 7.02708 12.284 7.075 12.236Z" fill="#606060"/>
</svg>
