<svg width="16" height="16" viewBox="0 0 16 16" fill="none" xmlns="http://www.w3.org/2000/svg">
<path d="M16 8C16 9.58225 15.5308 11.129 14.6518 12.4446C13.7727 13.7602 12.5233 14.7855 11.0615 15.391C9.59966 15.9965 7.99113 16.155 6.43928 15.8463C4.88743 15.5376 3.46197 14.7757 2.34315 13.6569C1.22433 12.538 0.462403 11.1126 0.153721 9.56072C-0.15496 8.00887 0.00346625 6.40034 0.608967 4.93853C1.21447 3.47672 2.23985 2.22729 3.55544 1.34824C4.87103 0.469191 6.41775 0 8 0C10.1217 0 12.1566 0.842854 13.6569 2.34315C15.1571 3.84344 16 5.87827 16 8ZM8.215 2.645C7.46093 2.61635 6.71317 2.79246 6.05115 3.15464C5.38912 3.51682 4.83755 4.05153 4.455 4.702C4.40026 4.78415 4.37889 4.88407 4.39524 4.98143C4.41158 5.07878 4.46443 5.16624 4.543 5.226L5.662 6.075C5.7427 6.13642 5.84429 6.1637 5.9449 6.15099C6.04552 6.13827 6.13712 6.08657 6.2 6.007C6.776 5.276 7.171 4.852 8.048 4.852C8.707 4.852 9.522 5.276 9.522 5.915C9.522 6.398 9.122 6.646 8.473 7.015C7.714 7.44 6.71 7.97 6.71 9.294V9.423C6.71 9.52564 6.75078 9.62407 6.82335 9.69665C6.89593 9.76923 6.99436 9.81 7.097 9.81H8.9C9.00264 9.81 9.10108 9.76923 9.17365 9.69665C9.24623 9.62407 9.287 9.52564 9.287 9.423V9.38C9.287 8.462 11.97 8.424 11.97 5.939C11.974 4.064 10.033 2.645 8.215 2.645ZM8 10.645C7.7065 10.645 7.41958 10.732 7.17554 10.8951C6.9315 11.0582 6.74129 11.2899 6.62897 11.5611C6.51665 11.8323 6.48726 12.1306 6.54452 12.4185C6.60178 12.7064 6.74312 12.9708 6.95066 13.1783C7.1582 13.3859 7.42262 13.5272 7.71049 13.5845C7.99836 13.6417 8.29674 13.6124 8.56791 13.5C8.83907 13.3877 9.07084 13.1975 9.2339 12.9535C9.39697 12.7094 9.484 12.4225 9.484 12.129C9.48347 11.7356 9.32695 11.3584 9.04877 11.0802C8.77058 10.802 8.39342 10.6455 8 10.645Z" fill="#606060"/>
</svg>
