<svg width="16" height="13" viewBox="0 0 16 13" fill="none" xmlns="http://www.w3.org/2000/svg">
<path d="M7.78818 3.2284L2.66655 7.45092V12.0035C2.66655 12.1212 2.71333 12.2342 2.79661 12.3175C2.87988 12.4007 2.99283 12.4475 3.1106 12.4475L6.22398 12.4395C6.34141 12.439 6.45384 12.392 6.53669 12.3088C6.61953 12.2255 6.66604 12.1129 6.66604 11.9955V9.33215C6.66604 9.21438 6.71282 9.10143 6.7961 9.01815C6.87937 8.93487 6.99232 8.88809 7.11009 8.88809H8.88931C8.94762 8.88809 9.00537 8.89958 9.05924 8.92189C9.11312 8.94421 9.16207 8.97692 9.2033 9.01815C9.24454 9.05939 9.27725 9.10834 9.29956 9.16222C9.32188 9.21609 9.33337 9.27383 9.33337 9.33215V11.9885C9.3331 12.0469 9.34436 12.1047 9.3665 12.1588C9.38863 12.2128 9.42121 12.262 9.46236 12.3034C9.50352 12.3448 9.55244 12.3777 9.60633 12.4002C9.66022 12.4227 9.71802 12.4344 9.77642 12.4345L12.8878 12.4435C13.0056 12.4435 13.1185 12.3967 13.2018 12.3135C13.2851 12.2302 13.3319 12.1172 13.3319 11.9995V7.44291L8.21623 3.2284C8.15599 3.17994 8.08101 3.15352 8.0037 3.15352C7.92639 3.15352 7.85141 3.17994 7.79118 3.2284H7.78818ZM15.8782 6.09575L13.5569 4.18151V0.333041C13.5569 0.244713 13.5218 0.160003 13.4593 0.0975462C13.3969 0.0350889 13.3122 0 13.2238 0H11.6677C11.5793 0 11.4946 0.0350889 11.4322 0.0975462C11.3697 0.160003 11.3346 0.244713 11.3346 0.333041V2.35029L8.84731 0.304038C8.60868 0.107674 8.30924 0.000312844 8.0002 0.000312844C7.69117 0.000312844 7.39173 0.107674 7.1531 0.304038L0.121235 6.09575C0.0874634 6.12358 0.0595082 6.15779 0.0389672 6.19644C0.0184262 6.23508 0.00570223 6.27739 0.00152253 6.32095C-0.00265717 6.36451 0.00178939 6.40847 0.014608 6.45031C0.0274267 6.49215 0.048366 6.53106 0.0762292 6.5648L0.784316 7.42591C0.812077 7.45976 0.846237 7.4878 0.884843 7.50843C0.923449 7.52906 0.965743 7.54188 1.00931 7.54615C1.05287 7.55043 1.09685 7.54607 1.13873 7.53333C1.18061 7.52059 1.21957 7.49972 1.25337 7.47192L7.78718 2.09026C7.84741 2.0418 7.92239 2.01538 7.9997 2.01538C8.07701 2.01538 8.15199 2.0418 8.21223 2.09026L14.747 7.47192C14.7807 7.49984 14.8196 7.52085 14.8614 7.53375C14.9032 7.54665 14.9471 7.55118 14.9907 7.5471C15.0342 7.54301 15.0766 7.53038 15.1152 7.50993C15.1539 7.48948 15.1882 7.46161 15.2161 7.42791L15.9242 6.56681C15.952 6.533 15.9728 6.49404 15.9856 6.45216C15.9983 6.41028 16.0027 6.3663 15.9984 6.32274C15.9941 6.27918 15.9813 6.23688 15.9607 6.19827C15.9401 6.15967 15.912 6.12551 15.8782 6.09775V6.09575Z" fill="#606060"/>
</svg>
