<svg width="16" height="16" viewBox="0 0 16 16" fill="none" xmlns="http://www.w3.org/2000/svg">
<path d="M13.5 10H12.5C12.3674 10 12.2402 10.0527 12.1464 10.1464C12.0527 10.2402 12 10.3674 12 10.5V14H2V4H6.5C6.63261 4 6.75979 3.94732 6.85355 3.85355C6.94732 3.75979 7 3.63261 7 3.5V2.5C7 2.36739 6.94732 2.24021 6.85355 2.14645C6.75979 2.05268 6.63261 2 6.5 2H1.5C1.10218 2 0.720644 2.15804 0.43934 2.43934C0.158035 2.72064 0 3.10218 0 3.5L0 14.5C0 14.8978 0.158035 15.2794 0.43934 15.5607C0.720644 15.842 1.10218 16 1.5 16H12.5C12.8978 16 13.2794 15.842 13.5607 15.5607C13.842 15.2794 14 14.8978 14 14.5V10.5C14 10.3674 13.9473 10.2402 13.8536 10.1464C13.7598 10.0527 13.6326 10 13.5 10ZM15.25 0H11.25C11.1019 0.000682753 10.9573 0.045085 10.8343 0.127637C10.7114 0.210188 10.6155 0.327214 10.5588 0.464032C10.5021 0.600851 10.487 0.751371 10.5155 0.89671C10.544 1.04205 10.6148 1.17574 10.719 1.281L11.835 2.4L4.219 10.012C4.1493 10.0817 4.09402 10.1644 4.0563 10.2554C4.01858 10.3464 3.99916 10.444 3.99916 10.5425C3.99916 10.641 4.01858 10.7386 4.0563 10.8296C4.09402 10.9206 4.1493 11.0033 4.219 11.073L4.927 11.78C4.99665 11.8497 5.07935 11.905 5.17038 11.9427C5.2614 11.9804 5.35897 11.9998 5.4575 11.9998C5.55603 11.9998 5.6536 11.9804 5.74462 11.9427C5.83565 11.905 5.91835 11.8497 5.988 11.78L13.6 4.166L14.716 5.281C14.8209 5.3867 14.9549 5.45882 15.1009 5.48819C15.2469 5.51756 15.3984 5.50285 15.536 5.44593C15.6736 5.38901 15.7912 5.29246 15.8739 5.16854C15.9565 5.04462 16.0004 4.89894 16 4.75V0.75C16 0.551088 15.921 0.360322 15.7803 0.21967C15.6397 0.0790176 15.4489 0 15.25 0V0Z" fill="#606060"/>
</svg>
