<svg width="17" height="17" viewBox="0 0 17 17" fill="none" xmlns="http://www.w3.org/2000/svg">
<path d="M16.0752 10.5391L14.6104 9.69579C14.7578 8.90029 14.7578 8.08445 14.6104 7.28895L16.0701 6.44564C16.1512 6.39869 16.2139 6.32565 16.2481 6.23844C16.2823 6.15123 16.2859 6.05501 16.2583 5.96549C15.8812 4.75901 15.2408 3.65133 14.3835 2.72245C14.3203 2.65344 14.2356 2.60798 14.1431 2.59356C14.0507 2.57914 13.9561 2.59661 13.8749 2.6431L12.4151 3.48642C11.8037 2.9599 11.0991 2.55243 10.3378 2.28503V0.606543C10.3385 0.512816 10.3067 0.421744 10.248 0.348718C10.1892 0.275691 10.1071 0.225187 10.0154 0.205741C8.78261 -0.0685802 7.50461 -0.0685802 6.27184 0.205741C6.18016 0.225187 6.09799 0.275691 6.03924 0.348718C5.98048 0.421744 5.94874 0.512816 5.94937 0.606543V2.29317C5.18739 2.56466 4.48111 2.97243 3.865 3.49659L2.40319 2.64819C2.32226 2.60076 2.22742 2.58275 2.13473 2.59721C2.04205 2.61167 1.9572 2.65771 1.89456 2.72754C1.03585 3.6554 0.395306 4.7634 0.0197426 5.97057C-0.00918626 6.06003 -0.00624725 6.15674 0.0280605 6.24427C0.0623683 6.3318 0.125927 6.40475 0.207936 6.45072L1.66771 7.29403C1.52026 8.08954 1.52026 8.90537 1.66771 9.70088L0.207936 10.5442C0.126878 10.5911 0.0641342 10.6642 0.0299523 10.7514C-0.00422959 10.8386 -0.00782875 10.9348 0.0197426 11.0243C0.396877 12.2308 1.03723 13.3385 1.89456 14.2674C1.95773 14.3364 2.04251 14.3818 2.13496 14.3963C2.2274 14.4107 2.322 14.3932 2.40319 14.3467L3.86296 13.5034C4.47635 14.0314 5.18338 14.4396 5.94734 14.7068V16.3935C5.9467 16.4872 5.97845 16.5783 6.0372 16.6513C6.09596 16.7243 6.17812 16.7748 6.26981 16.7943C7.50258 17.0686 8.78057 17.0686 10.0133 16.7943C10.105 16.7748 10.1872 16.7243 10.2459 16.6513C10.3047 16.5783 10.3364 16.4872 10.3358 16.3935V14.7038C11.0978 14.4323 11.8041 14.0245 12.4202 13.5004L13.88 14.3437C13.9609 14.3911 14.0557 14.4091 14.1484 14.3947C14.2411 14.3802 14.326 14.3342 14.3886 14.2643C15.2473 13.3365 15.8878 12.2285 16.2634 11.0213C16.2898 10.9314 16.2857 10.8353 16.2516 10.7481C16.2176 10.6608 16.1555 10.5873 16.0752 10.5391ZM8.14056 11.2349C7.59733 11.2349 7.0663 11.0738 6.61462 10.772C6.16295 10.4702 5.8109 10.0413 5.60302 9.53938C5.39514 9.03751 5.34074 8.48525 5.44672 7.95246C5.5527 7.41967 5.81429 6.93027 6.19841 6.54615C6.58253 6.16203 7.07193 5.90044 7.60472 5.79446C8.13751 5.68849 8.68976 5.74288 9.19164 5.95076C9.69352 6.15865 10.1225 6.51069 10.4243 6.96236C10.7261 7.41404 10.8872 7.94507 10.8872 8.4883C10.8872 9.2164 10.5981 9.9147 10.0834 10.4297C9.56878 10.9448 8.87069 11.2344 8.14259 11.2349H8.14056Z" fill="#606060"/>
</svg>
