<svg width="16" height="16" viewBox="0 0 16 16" fill="none" xmlns="http://www.w3.org/2000/svg">
<path d="M9.0345 0.773415V1.31041C9.03513 1.47983 9.09133 1.64435 9.19448 1.77874C9.29762 1.91314 9.44201 2.00998 9.6055 2.05441C10.9861 2.4417 12.1798 3.31572 12.966 4.51491C13.7521 5.7141 14.0775 7.15735 13.8821 8.57787C13.6866 9.99839 12.9835 11.3001 11.9026 12.2424C10.8218 13.1847 9.4364 13.7038 8.0025 13.7038C6.5686 13.7038 5.18317 13.1847 4.10235 12.2424C3.02152 11.3001 2.31839 9.99839 2.12292 8.57787C1.92745 7.15735 2.25287 5.7141 3.03902 4.51491C3.82517 3.31572 5.01889 2.4417 6.3995 2.05441C6.5629 2.00983 6.7072 1.91295 6.81032 1.77859C6.91344 1.64423 6.9697 1.47978 6.9705 1.31041V0.773415C6.97026 0.655336 6.94304 0.538872 6.89092 0.432918C6.8388 0.326964 6.76316 0.23432 6.66977 0.16206C6.57638 0.0898002 6.46772 0.0398355 6.35207 0.0159804C6.23643 -0.00787476 6.11686 -0.00498931 6.0025 0.0244165C4.11682 0.510649 2.47324 1.66799 1.3799 3.27947C0.286562 4.89094 -0.181445 6.84588 0.0636192 8.77776C0.308684 10.7096 1.24999 12.4858 2.71106 13.7732C4.17213 15.0607 6.05264 15.771 8 15.771C9.94736 15.771 11.8279 15.0607 13.2889 13.7732C14.75 12.4858 15.6913 10.7096 15.9364 8.77776C16.1814 6.84588 15.7134 4.89094 14.6201 3.27947C13.5268 1.66799 11.8832 0.510649 9.9975 0.0244165C9.88344 -0.00450522 9.76428 -0.00700668 9.64912 0.0171019C9.53395 0.0412104 9.4258 0.0912926 9.33292 0.163532C9.24004 0.235772 9.16488 0.328263 9.11316 0.433955C9.06144 0.539646 9.03454 0.655749 9.0345 0.773415Z" fill="#606060"/>
</svg>
