<svg width="16" height="16" viewBox="0 0 16 16" fill="none" xmlns="http://www.w3.org/2000/svg">
<path d="M15.7799 13.8338L12.6648 10.7187C12.595 10.649 12.5122 10.5938 12.4211 10.5562C12.3299 10.5186 12.2323 10.4994 12.1337 10.4997H11.6247C12.643 9.19496 13.1252 7.55101 12.9731 5.90301C12.821 4.25501 12.0461 2.72707 10.8063 1.63075C9.56648 0.534436 7.95519 -0.0476952 6.30096 0.00306055C4.64674 0.0538163 3.07416 0.733636 1.9039 1.9039C0.733636 3.07416 0.0538163 4.64674 0.00306055 6.30096C-0.0476952 7.95519 0.534436 9.56648 1.63075 10.8063C2.72707 12.0461 4.25501 12.821 5.90301 12.9731C7.55101 13.1252 9.19496 12.643 10.4997 11.6247V12.1337C10.4994 12.2323 10.5186 12.3299 10.5562 12.4211C10.5938 12.5122 10.649 12.595 10.7187 12.6648L13.8338 15.7799C13.9032 15.8497 13.9857 15.905 14.0766 15.9428C14.1675 15.9806 14.2649 16 14.3633 16C14.4617 16 14.5592 15.9806 14.6501 15.9428C14.7409 15.905 14.8234 15.8497 14.8929 15.7799L15.7769 14.8959C15.9176 14.7552 15.997 14.5645 15.9975 14.3655C15.9981 14.1664 15.9198 13.9753 15.7799 13.8338ZM6.49946 10.5007C5.7083 10.5007 4.9349 10.266 4.27707 9.8265C3.61924 9.38695 3.10653 8.76221 2.80376 8.03127C2.501 7.30033 2.42178 6.49602 2.57613 5.72006C2.73048 4.9441 3.11146 4.23133 3.6709 3.6719C4.23033 3.11246 4.9431 2.73148 5.71906 2.57713C6.49502 2.42278 7.29933 2.502 8.03027 2.80476C8.76121 3.10753 9.38595 3.62024 9.8255 4.27807C10.265 4.9359 10.4997 5.7093 10.4997 6.50046C10.4997 7.56138 10.0782 8.57884 9.32802 9.32902C8.57784 10.0792 7.56038 10.5007 6.49946 10.5007Z" fill="#606060"/>
</svg>
