<svg width="16" height="15" viewBox="0 0 16 15" fill="none" xmlns="http://www.w3.org/2000/svg">
<path d="M15.8218 12.2264C15.9387 12.4291 16.0001 12.6591 16 12.8932C15.9999 13.1272 15.9382 13.3571 15.8212 13.5598C15.7041 13.7625 15.5358 13.9308 15.3331 14.0479C15.1305 14.165 14.9006 14.2267 14.6665 14.2268H1.33345C1.0994 14.2267 0.869512 14.165 0.666849 14.0479C0.464187 13.9308 0.295886 13.7625 0.178838 13.5598C0.0617908 13.3571 0.000114543 13.1272 1.59391e-07 12.8932C-0.000114224 12.6591 0.0613373 12.4291 0.178187 12.2264L6.84473 0.666673C6.96188 0.463963 7.1303 0.295645 7.33309 0.178625C7.53587 0.0616039 7.76587 0 8 0C8.23413 0 8.46413 0.0616039 8.66691 0.178625C8.8697 0.295645 9.03812 0.463963 9.15527 0.666673L15.8218 12.2264ZM8 9.8358C7.74718 9.8358 7.50003 9.91077 7.28982 10.0512C7.0796 10.1917 6.91576 10.3913 6.81901 10.6249C6.72226 10.8585 6.69694 11.1155 6.74627 11.3635C6.79559 11.6114 6.91734 11.8392 7.09611 12.018C7.27488 12.1968 7.50265 12.3185 7.75062 12.3678C7.99858 12.4172 8.2556 12.3918 8.48918 12.2951C8.72276 12.1983 8.9224 12.0345 9.06286 11.8243C9.20333 11.6141 9.2783 11.3669 9.2783 11.1141C9.2783 10.7751 9.14362 10.4499 8.90389 10.2102C8.66416 9.97048 8.33903 9.8358 8 9.8358ZM6.78672 5.24173L6.99277 9.02061C6.99738 9.10579 7.03449 9.18595 7.09647 9.24458C7.15844 9.3032 7.24054 9.33581 7.32584 9.33568H8.67416C8.75946 9.33581 8.84156 9.3032 8.90353 9.24458C8.9655 9.18595 9.00262 9.10579 9.00723 9.02061L9.21328 5.24173C9.21587 5.19642 9.20917 5.15106 9.1936 5.10843C9.17802 5.0658 9.1539 5.0268 9.12271 4.99383C9.09152 4.96086 9.05392 4.93461 9.01221 4.9167C8.97051 4.89878 8.92559 4.88958 8.8802 4.88965H7.1188C7.07341 4.88958 7.02849 4.89878 6.98679 4.9167C6.94508 4.93461 6.90748 4.96086 6.87629 4.99383C6.8451 5.0268 6.82098 5.0658 6.8054 5.10843C6.78983 5.15106 6.78313 5.19642 6.78572 5.24173H6.78672Z" fill="#606060"/>
</svg>
