<svg width="11" height="17" viewBox="0 0 11 17" fill="none" xmlns="http://www.w3.org/2000/svg">
<path d="M5.51382 0.00479639C4.44585 -0.0377288 3.38564 0.203133 2.44088 0.702921C1.49611 1.20271 0.700435 1.94362 0.134658 2.85041C0.0239402 3.00947 -0.0210195 3.20516 0.00917704 3.39659C0.0393736 3.58802 0.142388 3.76038 0.296692 3.87763L1.64498 4.89985C1.80095 5.01798 1.9969 5.0705 2.19104 5.04621C2.38518 5.02192 2.56215 4.92274 2.68421 4.76982C2.94331 4.30919 3.3183 3.92427 3.77199 3.65321C4.22569 3.38215 4.74235 3.23436 5.27076 3.22449C6.23197 3.22449 7.42223 3.84362 7.42223 4.77582C7.42223 5.47598 6.8401 5.84305 5.8909 6.37617C4.78366 6.9973 3.31834 7.76947 3.31834 9.70188V10.007C3.31834 10.2059 3.39738 10.3967 3.53806 10.5374C3.67874 10.6781 3.86955 10.7571 4.06851 10.7571H6.33399C6.53295 10.7571 6.72376 10.6781 6.86444 10.5374C7.00512 10.3967 7.08415 10.2059 7.08415 10.007V9.82691C7.08415 8.48762 11 8.42661 11 4.80583C10.999 2.07524 8.16739 0.00479639 5.51382 0.00479639ZM5.20375 11.6783C4.77546 11.6783 4.35679 11.8053 4.00068 12.0433C3.64457 12.2812 3.36702 12.6194 3.20312 13.0151C3.03922 13.4108 2.99634 13.8462 3.07989 14.2662C3.16345 14.6863 3.36969 15.0721 3.67253 15.375C3.97538 15.6778 4.36123 15.8841 4.78129 15.9676C5.20135 16.0512 5.63675 16.0083 6.03244 15.8444C6.42813 15.6805 6.76633 15.403 7.00427 15.0468C7.24221 14.6907 7.36922 14.2721 7.36922 13.8438C7.36869 13.2696 7.14037 12.7191 6.73438 12.3131C6.32839 11.9072 5.7779 11.6788 5.20375 11.6783Z" fill="#606060"/>
</svg>
