<svg width="5" height="17" viewBox="0 0 5 17" fill="none" xmlns="http://www.w3.org/2000/svg">
<path d="M2.46803 6.03144C2.95616 6.03144 3.43333 6.17618 3.8392 6.44737C4.24507 6.71857 4.5614 7.10402 4.7482 7.55499C4.935 8.00597 4.98387 8.50221 4.88864 8.98096C4.79341 9.45971 4.55836 9.89947 4.2132 10.2446C3.86804 10.5898 3.42828 10.8249 2.94952 10.9201C2.47077 11.0153 1.97453 10.9664 1.52356 10.7796C1.07258 10.5928 0.687131 10.2765 0.41594 9.87064C0.144749 9.46477 9.16365e-07 8.9876 9.16365e-07 8.49947C-0.000278554 8.17528 0.0633686 7.85422 0.1873 7.55466C0.311231 7.2551 0.493014 6.98292 0.722247 6.75368C0.951481 6.52445 1.22367 6.34267 1.52323 6.21874C1.82279 6.0948 2.14385 6.03116 2.46803 6.03144ZM9.16365e-07 2.46803C9.16365e-07 2.95616 0.144749 3.43333 0.41594 3.8392C0.687131 4.24507 1.07258 4.5614 1.52356 4.7482C1.97453 4.935 2.47077 4.98387 2.94952 4.88864C3.42828 4.79341 3.86804 4.55836 4.2132 4.2132C4.55836 3.86804 4.79341 3.42827 4.88864 2.94952C4.98387 2.47077 4.935 1.97453 4.7482 1.52356C4.5614 1.07258 4.24507 0.68713 3.8392 0.415939C3.43333 0.144748 2.95616 9.16365e-07 2.46803 9.16365e-07C2.14385 -0.000278554 1.82279 0.0633686 1.52323 0.1873C1.22367 0.311231 0.951481 0.493014 0.722247 0.722247C0.493014 0.951481 0.311231 1.22367 0.1873 1.52323C0.0633686 1.82279 -0.000278554 2.14385 9.16365e-07 2.46803ZM9.16365e-07 14.532C9.16365e-07 15.0201 0.144749 15.4973 0.41594 15.9031C0.687131 16.309 1.07258 16.6253 1.52356 16.8121C1.97453 16.9989 2.47077 17.0478 2.94952 16.9526C3.42828 16.8573 3.86804 16.6223 4.2132 16.2771C4.55836 15.932 4.79341 15.4922 4.88864 15.0135C4.98387 14.5347 4.935 14.0385 4.7482 13.5875C4.5614 13.1365 4.24507 12.7511 3.8392 12.4799C3.43333 12.2087 2.95616 12.0639 2.46803 12.0639C2.14394 12.0637 1.82297 12.1273 1.52347 12.2511C1.22398 12.375 0.951844 12.5567 0.722624 12.7858C0.493404 13.0149 0.3116 13.287 0.187606 13.5864C0.0636121 13.8859 -0.00013884 14.2068 9.16365e-07 14.5309V14.532Z" fill="#606060"/>
</svg>
