<svg width="16" height="16" viewBox="0 0 16 16" fill="none" xmlns="http://www.w3.org/2000/svg">
<path d="M8 0C6.41775 0 4.87103 0.469191 3.55544 1.34824C2.23985 2.22729 1.21447 3.47672 0.608967 4.93853C0.00346625 6.40034 -0.15496 8.00887 0.153721 9.56072C0.462403 11.1126 1.22433 12.538 2.34315 13.6569C3.46197 14.7757 4.88743 15.5376 6.43928 15.8463C7.99113 16.155 9.59966 15.9965 11.0615 15.391C12.5233 14.7855 13.7727 13.7602 14.6518 12.4446C15.5308 11.129 16 9.58225 16 8C16 5.87827 15.1571 3.84344 13.6569 2.34315C12.1566 0.842854 10.1217 0 8 0ZM8 3.548C8.26813 3.548 8.53022 3.62755 8.75311 3.77657C8.97601 3.92559 9.14968 4.13739 9.25215 4.38516C9.35461 4.63293 9.38127 4.90553 9.32874 5.16845C9.27622 5.43138 9.14687 5.67281 8.95707 5.86219C8.76727 6.05157 8.52555 6.18038 8.26251 6.23233C7.99946 6.28427 7.72693 6.25701 7.47938 6.15399C7.23184 6.05098 7.02043 5.87684 6.8719 5.65361C6.72337 5.43039 6.64441 5.16812 6.645 4.9C6.6458 4.54115 6.78891 4.19727 7.04293 3.94381C7.29696 3.69035 7.64115 3.548 8 3.548ZM9.806 11.742C9.806 11.8446 9.76523 11.9431 9.69265 12.0156C9.62008 12.0882 9.52164 12.129 9.419 12.129H6.581C6.47836 12.129 6.37993 12.0882 6.30735 12.0156C6.23478 11.9431 6.194 11.8446 6.194 11.742V10.968C6.194 10.8654 6.23478 10.7669 6.30735 10.6943C6.37993 10.6218 6.47836 10.581 6.581 10.581H6.968V8.516H6.581C6.47836 8.516 6.37993 8.47523 6.30735 8.40265C6.23478 8.33007 6.194 8.23164 6.194 8.129V7.355C6.194 7.30418 6.20401 7.25385 6.22346 7.2069C6.24291 7.15995 6.27142 7.11729 6.30735 7.08135C6.34329 7.04541 6.38595 7.01691 6.4329 6.99746C6.47986 6.97801 6.53018 6.968 6.581 6.968H8.646C8.69683 6.968 8.74715 6.97801 8.7941 6.99746C8.84105 7.01691 8.88372 7.04541 8.91965 7.08135C8.95559 7.11729 8.9841 7.15995 9.00355 7.2069C9.02299 7.25385 9.033 7.30418 9.033 7.355V10.581H9.42C9.52264 10.581 9.62108 10.6218 9.69366 10.6943C9.76623 10.7669 9.807 10.8654 9.807 10.968L9.806 11.742Z" fill="#606060"/>
</svg>
