<svg width="16" height="11" viewBox="0 0 16 11" fill="none" xmlns="http://www.w3.org/2000/svg">
<path d="M15.9034 4.93014C15.1689 3.45942 14.0419 2.2205 12.647 1.35041C11.2522 0.480318 9.64391 0.0129543 8 0C6.35614 0.01318 4.74793 0.480641 3.35315 1.35071C1.95836 2.22077 0.831305 3.45956 0.0965684 4.93014C0.0330765 5.05595 0 5.1949 0 5.33582C0 5.47674 0.0330765 5.61569 0.0965684 5.74149C0.831124 7.21222 1.95813 8.45113 3.35296 9.32122C4.74779 10.1913 6.35609 10.6587 8 10.6716C9.64386 10.6585 11.2521 10.191 12.6469 9.32093C14.0416 8.45086 15.1687 7.21207 15.9034 5.74149C15.9669 5.61569 16 5.47674 16 5.33582C16 5.1949 15.9669 5.05595 15.9034 4.93014ZM8 9.33705C7.20853 9.33705 6.43484 9.10236 5.77675 8.66264C5.11867 8.22293 4.60576 7.59793 4.30288 6.86671C3.99999 6.13549 3.92075 5.33087 4.07515 4.55461C4.22956 3.77835 4.61069 3.06531 5.17034 2.50566C5.73 1.946 6.44304 1.56488 7.2193 1.41047C7.99556 1.25606 8.80018 1.33531 9.5314 1.63819C10.2626 1.94108 10.8876 2.45399 11.3273 3.11207C11.767 3.77015 12.0017 4.54385 12.0017 5.33532C12.0017 6.39664 11.5801 7.4145 10.8297 8.16498C10.0792 8.91545 9.06133 9.33705 8 9.33705ZM8 2.66716C7.76292 2.67068 7.52738 2.70601 7.2997 2.77221C7.49071 3.02837 7.58308 3.34475 7.5599 3.66344C7.53672 3.98214 7.39954 4.28182 7.17347 4.50765C6.9474 4.73347 6.64757 4.87033 6.32885 4.89317C6.01013 4.91601 5.69384 4.8233 5.43789 4.63201C5.2918 5.16945 5.31795 5.73917 5.51265 6.26097C5.70735 6.78277 6.0608 7.23037 6.52324 7.54075C6.98568 7.85113 7.53382 8.00865 8.09049 7.99115C8.64716 7.97365 9.18431 7.78199 9.62634 7.44318C10.0684 7.10437 10.393 6.63545 10.5545 6.10245C10.7161 5.56945 10.7064 4.99921 10.5268 4.47201C10.3473 3.94481 10.0069 3.4872 9.55359 3.1636C9.1003 2.84001 8.55694 2.66673 8 2.66816V2.66716Z" fill="#606060"/>
</svg>
