<svg width="16" height="12" viewBox="0 0 16 12" fill="none" xmlns="http://www.w3.org/2000/svg">
<path d="M5.43676 11.7018L0.234243 6.49927C0.0842543 6.34918 0 6.14568 0 5.9335C0 5.72131 0.0842543 5.51781 0.234243 5.36772L1.36579 4.23617C1.51588 4.08618 1.71938 4.00194 1.93156 4.00194C2.14375 4.00194 2.34725 4.08618 2.49734 4.23617L5.99903 7.73787L13.5027 0.234237C13.6527 0.0842483 13.8563 0 14.0684 0C14.2806 0 14.4841 0.0842483 14.6342 0.234237L15.7658 1.36579C15.9157 1.51588 16 1.71938 16 1.93156C16 2.14375 15.9157 2.34725 15.7658 2.49733L6.5613 11.7018C6.41122 11.8518 6.20772 11.936 5.99553 11.936C5.78335 11.936 5.57984 11.8518 5.42976 11.7018H5.43676Z" fill="#606060"/>
</svg>
