<svg width="14" height="16" viewBox="0 0 14 16" fill="none" xmlns="http://www.w3.org/2000/svg">
<path d="M13.5 1.00001H9.75L9.456 0.415006C9.39368 0.290171 9.29777 0.185195 9.17905 0.111882C9.06034 0.0385691 8.92353 -0.000174895 8.784 6.3701e-06H5.212C5.07266 -0.000571319 4.93597 0.0381538 4.81764 0.111737C4.6993 0.185319 4.60412 0.290778 4.543 0.416006L4.25 1.00001H0.5C0.367392 1.00001 0.240215 1.05268 0.146447 1.14645C0.0526784 1.24022 0 1.3674 0 1.50001L0 2.50001C0 2.63261 0.0526784 2.75979 0.146447 2.85356C0.240215 2.94733 0.367392 3.00001 0.5 3.00001H13.5C13.6326 3.00001 13.7598 2.94733 13.8536 2.85356C13.9473 2.75979 14 2.63261 14 2.50001V1.50001C14 1.3674 13.9473 1.24022 13.8536 1.14645C13.7598 1.05268 13.6326 1.00001 13.5 1.00001ZM1.662 14.594C1.68591 14.9748 1.85403 15.3322 2.13214 15.5934C2.41026 15.8546 2.77746 16 3.159 16H10.84C11.2221 16.0008 11.59 15.8557 11.8688 15.5944C12.1475 15.3331 12.3161 14.9753 12.34 14.594L13 4.00001H1L1.662 14.594Z" fill="#606060"/>
</svg>
