<svg width="16" height="15" viewBox="0 0 16 15" fill="none" xmlns="http://www.w3.org/2000/svg">
<path d="M11.1825 2.30757L13.6884 4.81347C13.7389 4.8644 13.7673 4.93323 13.7673 5.00496C13.7673 5.07669 13.7389 5.14551 13.6884 5.19645L7.62168 11.2632L5.04379 11.5492C4.96268 11.5588 4.88043 11.55 4.80325 11.5232C4.72606 11.4965 4.65595 11.4526 4.59819 11.3948C4.54043 11.3371 4.49653 11.2669 4.46979 11.1898C4.44305 11.1126 4.43417 11.0303 4.44381 10.9492L4.7298 8.37132L10.7996 2.30757C10.8505 2.25707 10.9193 2.22874 10.991 2.22874C11.0628 2.22874 11.1316 2.25707 11.1825 2.30757ZM15.6823 1.6716L14.3274 0.316653C14.1239 0.113863 13.8483 0 13.5609 0C13.2736 0 12.998 0.113863 12.7945 0.316653L11.8115 1.29961C11.761 1.35055 11.7327 1.41938 11.7327 1.4911C11.7327 1.56283 11.761 1.63166 11.8115 1.6826L14.3174 4.18849C14.3683 4.23899 14.4372 4.26733 14.5089 4.26733C14.5806 4.26733 14.6495 4.23899 14.7004 4.18849L15.6833 3.20553C15.8863 3.00182 16.0002 2.72592 16 2.43836C15.9998 2.1508 15.8856 1.87505 15.6823 1.6716ZM10.6666 9.61327V12.4411H1.77793V3.55252H8.16066C8.24931 3.55104 8.33392 3.51519 8.39665 3.45252L9.5076 2.34357C9.55439 2.297 9.58628 2.23757 9.59921 2.17283C9.61215 2.1081 9.60555 2.04098 9.58026 1.98C9.55497 1.91903 9.51213 1.86694 9.45717 1.83037C9.40221 1.79379 9.33763 1.77438 9.27161 1.77459H1.33294C0.979507 1.77486 0.640621 1.91538 0.390703 2.1653C0.140785 2.41521 0.000264847 2.7541 0 3.10754L0 12.8851C0.000264847 13.2386 0.140785 13.5775 0.390703 13.8274C0.640621 14.0773 0.979507 14.2178 1.33294 14.2181H11.1105C11.464 14.2178 11.8029 14.0773 12.0528 13.8274C12.3027 13.5775 12.4432 13.2386 12.4435 12.8851V8.49931C12.4432 8.43351 12.4235 8.36925 12.3869 8.31461C12.3502 8.25996 12.2982 8.21736 12.2375 8.19215C12.1767 8.16694 12.1098 8.16025 12.0452 8.17291C11.9807 8.18557 11.9213 8.21703 11.8745 8.26332L10.7636 9.37728C10.702 9.44048 10.6672 9.52504 10.6666 9.61327Z" fill="#606060"/>
</svg>
