<?xml version="1.0" encoding="utf-8"?>
<!-- Generator: Adobe Illustrator 26.5.1, SVG Export Plug-In . SVG Version: 6.00 Build 0)  -->
<svg version="1.1" xmlns="http://www.w3.org/2000/svg" xmlns:xlink="http://www.w3.org/1999/xlink" x="0px" y="0px"
	 viewBox="0 0 1605 400.03" style="enable-background:new 0 0 1605 400.03;" xml:space="preserve">
<style type="text/css">
	.st0{fill:#F5F5F5;}
	.st1{fill:#212121;}
	.st2{fill:#01865F;}
	.st3{fill:#F4881C;}
	.st4{fill:#C91D1D;}
	.st5{fill:#006151;}
</style>
<g id="APPLICATIONS">
</g>
<g id="VERSIONS">
	<g id="logo-symbol-alt">
	</g>
	<g id="logo-full-default">
		<g>
			<g>
				<path class="st1" d="M507.13,267.81c5.48,0,10.66,0.55,15.41,1.63c4.95,1.13,9.31,2.51,12.97,4.1l4.43,1.83l1.31-5.16v-34.74
					l-2.84-0.91c-10.83-3.49-22.33-5.26-34.19-5.26c-12.02,0-23.06,2.16-32.81,6.41c-9.73,4.24-18.12,10.21-24.93,17.74
					c-6.77,7.48-12.04,16.44-15.67,26.63c-3.62,10.1-5.45,21.11-5.45,32.71c0,11.67,1.62,22.72,4.82,32.85
					c3.25,10.24,8.24,19.18,14.84,26.59c6.64,7.46,15.11,13.35,25.17,17.51c9.99,4.13,21.83,6.23,35.2,6.23
					c8.49,0,16.86-0.8,24.88-2.38c2.81-0.55,5.48-1.16,7.94-1.82l3.04-0.81v-39.34l-5.35,1.73c-2.83,0.91-6.08,1.74-9.65,2.46
					c-5.55,1.1-11.21,1.65-16.82,1.65c-14.56,0-24.92-3.88-30.8-11.55c-6.15-7.97-9.27-19.12-9.27-33.14
					c0-14.53,3.28-25.84,9.75-33.62C485.46,271.52,494.63,267.81,507.13,267.81z"/>
				<path class="st1" d="M943.86,175.31v60.61c-2.8-1.16-5.85-2.25-9.13-3.27c-5.91-1.84-12.83-2.77-20.56-2.77
					c-11.31,0-21.49,2.01-30.26,5.98c-8.78,4-16.36,9.76-22.52,17.14c-6.1,7.31-10.79,16.18-13.92,26.38
					c-3.09,10.07-4.65,21.41-4.65,33.69c0,12.6,1.88,24.09,5.59,34.16c3.74,10.25,9.19,19.1,16.21,26.3
					c7.04,7.23,15.65,12.84,25.57,16.69c9.87,3.83,21.15,5.78,33.51,5.78c11.67,0,23.02-0.9,33.74-2.66
					c9.63-1.61,17.34-3.25,23.57-5l2.98-0.84V175.31H943.86z M923.99,357.48c-11.73,0-20.61-3.82-27.16-11.68
					c-6.65-7.97-10.02-19.27-10.02-33.59c0-13.93,2.73-25.01,8.1-32.93c5.11-7.53,13.12-11.2,24.48-11.2
					c5.3,0,10.32,0.84,14.91,2.49c3.83,1.39,7.04,2.84,9.57,4.32v81.01c-1.77,0.3-3.8,0.6-6.09,0.88
					C934.01,357.25,929.38,357.48,923.99,357.48z"/>
				<rect x="1023.55" y="233.06" class="st1" width="43.11" height="159.16"/>
				<path class="st1" d="M1219.37,267.68L1219.37,267.68c-2.18-8-5.88-14.92-11.02-20.59c-5.12-5.65-12.03-10.09-20.53-13.21
					c-8.3-3.04-18.59-4.59-30.57-4.59c-9.86,0-19.24,0.8-27.88,2.39c-6.09,1.11-11.26,2.24-15.36,3.37l-3.01,0.83v38.58l5.49-1.99
					c4-1.45,9.31-2.75,15.74-3.87c6.58-1.11,13.83-1.67,21.56-1.67c5.38,0,9.88,0.69,13.37,2.04c3.29,1.28,5.95,3.08,7.91,5.34
					c2.02,2.35,3.4,4.99,4.21,8.06c0.88,3.35,1.31,6.78,1.31,10.5v0.68c-3.19-0.64-6.18-1.11-9.03-1.44
					c-4.36-0.5-8.59-0.75-12.58-0.75c-8.45,0-16.75,0.86-24.68,2.55c-8.04,1.74-15.25,4.65-21.44,8.66c-6.3,4.12-11.36,9.5-15.04,16
					c-3.7,6.53-5.57,14.59-5.57,23.95c0,9.63,1.64,17.9,4.88,24.59c3.27,6.77,7.89,12.33,13.69,16.53
					c5.69,4.16,12.65,7.2,20.67,9.05c7.7,1.8,16.37,2.72,25.76,2.72c13.86,0,26.45-0.84,37.42-2.5c11.28-1.71,19.34-3.09,24.64-4.23
					l3.23-0.7v-94.82C1222.54,283.99,1221.47,275.42,1219.37,267.68z M1180.59,326.38v32.03c-5.09,0.72-11.94,1.09-20.44,1.09
					c-8.06,0-14.43-1.4-18.94-4.15c-3.93-2.41-5.84-6.88-5.84-13.68c0-3.42,0.71-6.11,2.17-8.22c1.52-2.21,3.5-3.89,6.05-5.14
					c2.82-1.36,5.93-2.28,9.5-2.81c3.73-0.54,7.47-0.81,11.09-0.81c4.2,0,8.07,0.27,11.48,0.8
					C1177.56,325.79,1179.21,326.09,1180.59,326.38z"/>
				<path class="st1" d="M1347.27,233.3c-2.93-0.69-5.96-1.27-9.24-1.79c-2.89-0.45-5.99-0.84-9.48-1.19
					c-3.12-0.29-5.97-0.43-8.46-0.43c-12.59,0-24.2,1.14-34.5,3.4c-10.19,2.23-18.88,4.66-25.81,7.24l-2.67,0.99v150.71h43.11
					V270.32c1.36-0.31,3.2-0.68,5.71-1.13c4.18-0.74,7.96-1.1,11.56-1.1c6.43,0,12.13,0.5,16.92,1.49c5.1,1.08,8.86,2.03,11.51,2.92
					l5.4,1.81v-40.03L1347.27,233.3z"/>
				<path class="st1" d="M660.18,233.3c-2.93-0.69-5.96-1.27-9.24-1.79c-2.89-0.45-5.99-0.84-9.48-1.19
					c-3.12-0.29-5.97-0.43-8.46-0.43c-12.59,0-24.2,1.14-34.5,3.4c-10.19,2.23-18.88,4.66-25.81,7.24l-2.67,0.99v150.71h43.11
					V270.32c1.36-0.31,3.2-0.68,5.71-1.13c4.18-0.74,7.96-1.1,11.56-1.1c6.43,0,12.13,0.5,16.92,1.49c5.1,1.08,8.86,2.03,11.51,2.92
					l5.4,1.81v-40.03L660.18,233.3z"/>
				<rect x="1373.72" y="233.06" class="st1" width="43.13" height="159.16"/>
				<path class="st1" d="M1592.25,278.61c-3.74-10.19-9.02-19.04-15.69-26.33c-6.73-7.34-14.93-13.07-24.39-17.03
					c-9.41-3.95-19.8-5.95-30.89-5.95c-11.09,0-21.44,2-30.75,5.96c-9.35,3.96-17.54,9.68-24.35,17
					c-6.79,7.29-12.13,16.16-15.86,26.35c-3.71,10.12-5.59,21.52-5.59,33.89c0,12.36,1.88,23.81,5.58,34.02
					c3.73,10.27,9.01,19.18,15.7,26.49c6.72,7.32,14.85,13.1,24.19,17.15c9.33,4.06,19.78,6.11,31.08,6.11
					c11.29,0,21.79-2.05,31.21-6.11c9.44-4.06,17.63-9.83,24.35-17.16c6.7-7.31,11.93-16.23,15.56-26.52
					c3.6-10.21,5.43-21.65,5.43-33.98C1597.84,300.14,1595.96,288.74,1592.25,278.61z M1553.86,312.5c0,14.25-2.99,25.58-8.89,33.67
					c-5.68,7.8-13.43,11.6-23.69,11.6c-10.26,0-18-3.79-23.68-11.6c-5.9-8.09-8.89-19.42-8.89-33.67c0-14.05,2.99-25.23,8.87-33.23
					c5.68-7.72,13.43-11.47,23.7-11.47c10.26,0,18.01,3.75,23.7,11.47C1550.87,287.27,1553.86,298.45,1553.86,312.5z"/>
				<path class="st1" d="M803.9,250.08c-12.4-13.73-29.79-20.7-51.68-20.7c-9.32,0-18.57,1.79-27.5,5.33
					c-8.97,3.57-17.02,8.94-23.92,15.96c-6.89,6.98-12.49,15.84-16.63,26.33c-4.11,10.44-6.2,22.71-6.2,36.45
					c0,11.73,1.61,22.69,4.8,32.6c3.26,10.04,8.31,18.89,15.01,26.3c6.73,7.45,15.4,13.34,25.76,17.51
					c10.26,4.12,22.42,6.21,36.16,6.21c5.39,0,10.7-0.3,15.76-0.9c5-0.57,9.82-1.31,14.37-2.2c4.46-0.9,8.48-1.91,11.96-3
					c1.22-0.38,2.38-0.77,3.42-1.13l2.75-0.96v-39.64l-5.71,2.45c-3.8,1.63-9.14,3.2-15.87,4.67c-6.69,1.46-14.21,2.21-22.35,2.21
					c-13.36,0-23.58-3.01-30.37-8.94c-5.9-5.16-9.5-12.05-10.93-20.98h98.74l0.34-3.72c0.21-2.3,0.35-4.49,0.43-6.67
					c0.11-2.3,0.16-4.55,0.16-6.69C822.42,284.03,816.19,263.68,803.9,250.08z M772.29,275.5c2.24,2.71,3.98,6.03,5.16,9.86
					c0.84,2.68,1.4,5.49,1.66,8.4H723.3c0.55-2.54,1.27-5.05,2.17-7.5c1.35-3.73,3.29-7.09,5.75-10c2.42-2.84,5.43-5.17,8.97-6.92
					c3.44-1.72,7.58-2.59,12.32-2.59c4.53,0,8.44,0.78,11.61,2.32C767.39,270.65,770.06,272.75,772.29,275.5z"/>
				<rect x="1023.54" y="175.32" class="st1" width="43.12" height="43.12"/>
				<rect x="1373.72" y="175.32" class="st1" width="43.12" height="43.12"/>
				
					<rect x="1109.71" y="163.06" transform="matrix(0.9205 -0.3907 0.3907 0.9205 19.1832 463.5235)" class="st1" width="78.05" height="43.12"/>
			</g>
			<g>
				<path class="st1" d="M527.55,79.06c0-15.78-1.98-27.18-5.92-34.21c-3.95-7.02-11.31-10.54-22.08-10.54
					c-3.85,0-8.08,0.29-12.7,0.87c-4.62,0.58-8.08,1.06-10.39,1.44v121.83h-34.93V12.37c6.73-1.92,15.54-3.75,26.42-5.49
					c10.87-1.73,22.37-2.6,34.5-2.6c10.39,0,18.91,1.35,25.55,4.04c6.64,2.7,12.17,6.26,16.6,10.68c2.12-1.54,4.81-3.18,8.08-4.91
					c3.27-1.73,6.93-3.32,10.97-4.76c4.04-1.44,8.32-2.64,12.85-3.61c4.52-0.96,9.09-1.44,13.71-1.44c11.74,0,21.41,1.69,29.01,5.05
					c7.6,3.37,13.57,8.08,17.9,14.15c4.33,6.06,7.31,13.38,8.95,21.94c1.63,8.57,2.45,17.95,2.45,28.15v84.88h-34.93V79.06
					c0-15.78-1.93-27.18-5.77-34.21c-3.85-7.02-11.26-10.54-22.23-10.54c-5.59,0-10.88,0.92-15.88,2.74
					c-5.01,1.83-8.76,3.61-11.26,5.34c1.54,4.81,2.6,9.91,3.18,15.3c0.58,5.39,0.87,11.16,0.87,17.32v83.43h-34.93V79.06z"/>
				<path class="st1" d="M801.66,23.06c-11.66-12.9-27.87-19.35-48.64-19.35c-8.87,0-17.53,1.69-25.98,5.04
					c-8.48,3.37-15.99,8.39-22.52,15.03c-6.55,6.64-11.79,14.96-15.73,24.95c-3.94,10.01-5.92,21.67-5.92,34.94
					c0,11.35,1.53,21.8,4.6,31.33c3.09,9.51,7.8,17.79,14.15,24.82c6.35,7.03,14.44,12.51,24.25,16.45
					c9.82,3.94,21.36,5.92,34.64,5.92c5.19,0,10.3-0.28,15.29-0.88c5.02-0.57,9.68-1.29,14.02-2.15c4.32-0.88,8.17-1.84,11.55-2.89
					c1.18-0.37,2.3-0.74,3.31-1.1v-30.52c-4.03,1.73-9.57,3.37-16.61,4.91c-7.01,1.53-14.77,2.3-23.22,2.3
					c-14.44,0-25.46-3.31-33.06-9.95c-7.6-6.64-11.9-16.02-12.84-28.15h99.6c0.17-1.93,0.33-4.08,0.42-6.48
					c0.11-2.41,0.15-4.58,0.15-6.51C819.12,55.2,813.29,35.94,801.66,23.06z M719.24,68.08c0.57-4.43,1.62-8.74,3.18-12.99
					c1.53-4.23,3.7-7.97,6.48-11.26c2.78-3.26,6.2-5.92,10.25-7.93c4.03-2.02,8.76-3.02,14.15-3.02c5.19,0,9.66,0.92,13.41,2.74
					c3.77,1.84,6.94,4.34,9.53,7.51c2.61,3.15,4.58,6.92,5.92,11.24c1.36,4.34,2.04,8.92,2.04,13.71H719.24z"/>
				<path class="st1" d="M937.7,131.35c-4.73,0.4-9.24,0.6-13.48,0.6c-11.79,0-20.05-3.48-24.79-10.43
					c-4.73-6.97-7.11-18.56-7.11-34.81V7.27h-35.06v84.95c0,10.26,1.04,19.67,3.18,28.27c2.11,8.58,5.65,15.99,10.57,22.18
					c4.93,6.17,11.51,11.01,19.72,14.5c8.22,3.47,18.4,5.21,30.59,5.21c7.81,0,15.23-0.33,22.27-1v-30.63
					C941.9,130.98,939.93,131.17,937.7,131.35z M948.29,7.27v119.76h35.08V7.27H948.29z"/>
			</g>
		</g>
		<g>
			<g>
				<path class="st2" d="M89.01,40.69C6.34,99.99-16.49,211.66,33.3,297.95l64.3-46.13c-24.86-50.68-10.25-113.37,37.15-147.37
					c28.33-20.32,62.61-26.27,94.16-19.26l74.86-53.7C238.79-7.16,154.38-6.21,89.01,40.69z"/>
			</g>
			<g>
				<path class="st3" d="M120.48,283.71l-64.3,46.13c61.5,69.95,164.37,86.88,245.04,40.33l-46.13-64.3
					C210.22,327.88,155.93,318.94,120.48,283.71z"/>
			</g>
			<g>
				<path class="st4" d="M320.6,213.19c-2.81,25.97-14.2,50.92-33.43,70.26l46.13,64.3c54.3-47.74,76.65-120.4,62.16-188.27
					L320.6,213.19z"/>
			</g>
		</g>
	</g>
</g>
<g id="COLORS">
</g>
</svg>
